<svg width="18" height="19" viewBox="0 0 18 19" fill="none" xmlns="http://www.w3.org/2000/svg">
<path fill-rule="evenodd" clip-rule="evenodd" d="M8.56152 5.79999C5.7004 5.79999 3.54915 7.45108 1.81004 9.59296C1.47868 10.0011 1.47868 10.5849 1.81004 10.993C3.54915 13.1349 5.7004 14.7859 8.56152 14.7859C11.4226 14.7859 13.5739 13.1349 15.313 10.993C15.6444 10.5849 15.6444 10.0011 15.313 9.59296C13.5739 7.45108 11.4226 5.79999 8.56152 5.79999ZM7.35451 10.2929C7.35451 9.62629 7.89493 9.08586 8.56158 9.08586C9.22822 9.08586 9.76865 9.62629 9.76865 10.2929C9.76865 10.9596 9.22822 11.5 8.56158 11.5C7.89493 11.5 7.35451 10.9596 7.35451 10.2929ZM8.56158 8.14703C7.37643 8.14703 6.41568 9.10778 6.41568 10.2929C6.41568 11.4781 7.37643 12.4388 8.56158 12.4388C9.74673 12.4388 10.7075 11.4781 10.7075 10.2929C10.7075 9.10778 9.74673 8.14703 8.56158 8.14703Z" fill="#292D32"/>
</svg>
