<svg width="18" height="18" viewBox="0 0 18 18" fill="none" xmlns="http://www.w3.org/2000/svg">
<path d="M8.75035 3.01836C8.82893 2.77651 9.17107 2.77651 9.24965 3.01836L10.2881 6.21452C10.3233 6.32268 10.4241 6.39591 10.5378 6.39591H13.8984C14.1527 6.39591 14.2585 6.7213 14.0527 6.87077L11.3339 8.84611C11.2419 8.91295 11.2034 9.03144 11.2386 9.13959L12.2771 12.3358C12.3556 12.5776 12.0788 12.7787 11.8731 12.6292L9.15429 10.6539C9.06229 10.5871 8.93771 10.5871 8.8457 10.6539L6.12688 12.6292C5.92116 12.7787 5.64436 12.5776 5.72294 12.3358L6.76144 9.13959C6.79658 9.03144 6.75808 8.91295 6.66608 8.84611L3.94726 6.87077C3.74153 6.7213 3.84726 6.39591 4.10155 6.39591H7.4622C7.57592 6.39591 7.67671 6.32268 7.71185 6.21452L8.75035 3.01836Z" fill="#292D32"/>
<path fill-rule="evenodd" clip-rule="evenodd" d="M8.21537 2.84454C8.46234 2.08445 9.53765 2.08446 9.78462 2.84454L10.7558 5.83341H13.8984C14.6976 5.83341 15.0299 6.85609 14.3834 7.32585L11.8409 9.17307L12.812 12.1619C13.059 12.922 12.189 13.5541 11.5425 13.0843L8.99999 11.2371L6.45751 13.0843C5.81094 13.5541 4.941 12.922 5.18796 12.1619L6.15911 9.17307L3.61662 7.32584C2.97005 6.85609 3.30235 5.83341 4.10155 5.83341H7.24423L8.21537 2.84454ZM8.99999 4.0703L8.24681 6.38835C8.13637 6.72826 7.8196 6.95841 7.46219 6.95841H5.02485L6.9967 8.39104C7.28585 8.60112 7.40685 8.9735 7.2964 9.31342L6.54322 11.6315L8.51507 10.1988C8.80422 9.98875 9.19576 9.98875 9.48492 10.1988L11.4568 11.6315L10.7036 9.31342C10.5931 8.9735 10.7141 8.60112 11.0033 8.39104L12.9751 6.95841H10.5378C10.1804 6.95841 9.86362 6.72826 9.75317 6.38835L8.99999 4.0703Z" fill="#292D32"/>
<path d="M6.77476 14.2499L6.75 14.9996" stroke="#292D32" stroke-width="1.5" stroke-linecap="round"/>
<path d="M11.2722 14.3984L11.2474 15.1481" stroke="#292D32" stroke-width="1.5" stroke-linecap="round"/>
<path d="M9.02353 14.324L8.974 15.8235" stroke="#292D32" stroke-width="1.5" stroke-linecap="round"/>
</svg>
